<?xml version="1.0" standalone="yes"?>

<svg version="1.1" viewBox="0.0 0.0 292.0 143.0" fill="none" stroke="none" stroke-linecap="square" stroke-miterlimit="10" xmlns="http://www.w3.org/2000/svg" xmlns:xlink="http://www.w3.org/1999/xlink"><clipPath id="p.0"><path d="m0 0l292.0 0l0 143.0l-292.0 0l0 -143.0z" clip-rule="nonzero"></path></clipPath><g clip-path="url(#p.0)"><path fill="#000000" fill-opacity="0.0" d="m0 0l292.9475 0l0 143.21785l-292.9475 0z" fill-rule="nonzero"></path><path fill="#ff4730" d="m38.58655 -1.0622454E-6c-8.443266 0 -15.648188 1.3696861 -21.614763 4.1090565c-5.9665766 2.7206073 -10.291407 6.501316 -12.974488 11.342123c-2.6643195 4.840806 -3.9964793 12.496036 -3.9964797 22.965687c0 7.2612076 0.9381407 13.227783 2.8144224 17.899727c1.8950448 4.67194 4.277922 8.330692 7.148633 10.976246c2.8707113 2.6455612 8.7247095 6.8953323 17.561996 12.749336c8.837288 5.7977066 14.381699 9.934906 16.633236 12.411598c2.1952515 2.4766922 3.2928772 7.739662 3.2928772 15.78891c0 3.6587524 -0.58164597 6.4168854 -1.7449417 8.274406c-1.1445312 1.857521 -2.898857 2.7862778 -5.26297 2.7862778c-2.3641167 0 -4.0152435 -0.7317505 -4.9533844 -2.1952515c-0.9193764 -1.463501 -1.3790665 -4.7563705 -1.3790665 -9.878624l0 -16.633232l-33.013176 0l0 8.94986c0 10.244499 1.0413364 18.153023 3.1240091 23.725586c2.0826726 5.572548 6.4825525 10.160057 13.199642 13.76252c6.7358494 3.6024628 14.860149 5.4036865 24.372898 5.4036865c8.668419 0 16.26736 -1.557312 22.796818 -4.671936c6.5294647 -3.1333923 10.929344 -7.007904 13.199646 -11.623566c2.2890625 -4.6156464 3.4335938 -11.792427 3.4335938 -21.530327c0 -13.396652 -2.0545273 -23.106407 -6.163582 -29.129272c-4.109062 -6.0228653 -14.072117 -13.734383 -29.889168 -23.134556c-5.5162697 -3.2647285 -8.865433 -6.0510063 -10.047489 -8.358833c-1.2383461 -2.307827 -1.857521 -5.7414207 -1.857521 -10.300785c0 -3.546173 0.5441246 -6.1917305 1.6323662 -7.936672c1.1070061 -1.7449417 2.729992 -2.6174126 4.86895 -2.6174126c1.9700966 0 3.377308 0.647316 4.221634 1.9419518c0.84432983 1.2946339 1.2664909 4.3060665 1.2664909 9.034294l0 10.131924l33.013172 0l0 -5.403694c0 -10.863668 -1.0600967 -18.556425 -3.1802902 -23.078262c-2.1014404 -4.5406027 -6.407509 -8.3025465 -12.918201 -11.285834c-6.4919395 -2.9832878 -14.353558 -4.4749317 -23.584862 -4.4749317z" fill-rule="evenodd"></path><path fill="#ff4730" d="m126.73426 0.25329697c-6.923477 0 -12.861908 1.0976248 -17.815292 3.2928743c-4.9533844 2.1952496 -8.978004 5.431835 -12.073868 9.709758c-3.095871 4.2779226 -5.037819 8.630895 -5.825859 13.058919c-0.78804016 4.4092617 -1.1820526 10.441507 -1.1820526 18.096739l0 4.9815254l30.564621 0l0 -13.002632c0 -6.0228634 0.6285629 -10.047487 1.8856659 -12.073872c1.2758789 -2.0263844 3.2084427 -3.0395756 5.797714 -3.0395756c2.589264 0 4.512451 0.9193764 5.769562 2.758133c1.2758789 1.8199921 1.9138031 4.587509 1.9138031 8.302546c0 4.840809 -2.1014252 11.586044 -6.304306 20.235699c-4.1840973 8.6308975 -17.393127 31.12751 -39.62706 67.48985l0 19.503952l75.06064 0l0 -23.303421l-37.40367 0c19.138077 -28.313095 30.658447 -46.831993 34.56111 -55.5567c3.9214325 -8.724712 5.882141 -16.999111 5.882141 -24.823208c0 -10.300785 -3.4804993 -18.809723 -10.441513 -25.52681c-6.94223 -6.7358522 -17.196121 -10.103779 -30.761635 -10.103777z" fill-rule="evenodd"></path><path fill="#ff4730" d="m179.16695 2.87071l0 136.6965l31.071228 0l0 -90.1741l13.087067 90.1741l22.036926 0l12.411606 -92.28492l0 92.28492l31.071228 0l0 -136.6965l-46.353546 0l-8.10553 63.831104l-4.8970947 -34.786263c-1.5197906 -11.145113 -2.9551544 -20.826727 -4.306076 -29.04484z" fill-rule="evenodd"></path><path stroke="#666666" stroke-width="4.0" stroke-linejoin="round" stroke-linecap="butt" d="m38.58655 -1.0622454E-6c-8.443266 0 -15.648188 1.3696861 -21.614763 4.1090565c-5.9665766 2.7206073 -10.291407 6.501316 -12.974488 11.342123c-2.6643195 4.840806 -3.9964793 12.496036 -3.9964797 22.965687c0 7.2612076 0.9381407 13.227783 2.8144224 17.899727c1.8950448 4.67194 4.277922 8.330692 7.148633 10.976246c2.8707113 2.6455612 8.7247095 6.8953323 17.561996 12.749336c8.837288 5.7977066 14.381699 9.934906 16.633236 12.411598c2.1952515 2.4766922 3.2928772 7.739662 3.2928772 15.78891c0 3.6587524 -0.58164597 6.4168854 -1.7449417 8.274406c-1.1445312 1.857521 -2.898857 2.7862778 -5.26297 2.7862778c-2.3641167 0 -4.0152435 -0.7317505 -4.9533844 -2.1952515c-0.9193764 -1.463501 -1.3790665 -4.7563705 -1.3790665 -9.878624l0 -16.633232l-33.013176 0l0 8.94986c0 10.244499 1.0413364 18.153023 3.1240091 23.725586c2.0826726 5.572548 6.4825525 10.160057 13.199642 13.76252c6.7358494 3.6024628 14.860149 5.4036865 24.372898 5.4036865c8.668419 0 16.26736 -1.557312 22.796818 -4.671936c6.5294647 -3.1333923 10.929344 -7.007904 13.199646 -11.623566c2.2890625 -4.6156464 3.4335938 -11.792427 3.4335938 -21.530327c0 -13.396652 -2.0545273 -23.106407 -6.163582 -29.129272c-4.109062 -6.0228653 -14.072117 -13.734383 -29.889168 -23.134556c-5.5162697 -3.2647285 -8.865433 -6.0510063 -10.047489 -8.358833c-1.2383461 -2.307827 -1.857521 -5.7414207 -1.857521 -10.300785c0 -3.546173 0.5441246 -6.1917305 1.6323662 -7.936672c1.1070061 -1.7449417 2.729992 -2.6174126 4.86895 -2.6174126c1.9700966 0 3.377308 0.647316 4.221634 1.9419518c0.84432983 1.2946339 1.2664909 4.3060665 1.2664909 9.034294l0 10.131924l33.013172 0l0 -5.403694c0 -10.863668 -1.0600967 -18.556425 -3.1802902 -23.078262c-2.1014404 -4.5406027 -6.407509 -8.3025465 -12.918201 -11.285834c-6.4919395 -2.9832878 -14.353558 -4.4749317 -23.584862 -4.4749317z" fill-rule="evenodd"></path><path stroke="#666666" stroke-width="4.0" stroke-linejoin="round" stroke-linecap="butt" d="m126.73426 0.25329697c-6.923477 0 -12.861908 1.0976248 -17.815292 3.2928743c-4.9533844 2.1952496 -8.978004 5.431835 -12.073868 9.709758c-3.095871 4.2779226 -5.037819 8.630895 -5.825859 13.058919c-0.78804016 4.4092617 -1.1820526 10.441507 -1.1820526 18.096739l0 4.9815254l30.564621 0l0 -13.002632c0 -6.0228634 0.6285629 -10.047487 1.8856659 -12.073872c1.2758789 -2.0263844 3.2084427 -3.0395756 5.797714 -3.0395756c2.589264 0 4.512451 0.9193764 5.769562 2.758133c1.2758789 1.8199921 1.9138031 4.587509 1.9138031 8.302546c0 4.840809 -2.1014252 11.586044 -6.304306 20.235699c-4.1840973 8.6308975 -17.393127 31.12751 -39.62706 67.48985l0 19.503952l75.06064 0l0 -23.303421l-37.40367 0c19.138077 -28.313095 30.658447 -46.831993 34.56111 -55.5567c3.9214325 -8.724712 5.882141 -16.999111 5.882141 -24.823208c0 -10.300785 -3.4804993 -18.809723 -10.441513 -25.52681c-6.94223 -6.7358522 -17.196121 -10.103779 -30.761635 -10.103777z" fill-rule="evenodd"></path><path stroke="#666666" stroke-width="4.0" stroke-linejoin="round" stroke-linecap="butt" d="m179.16695 2.87071l0 136.6965l31.071228 0l0 -90.1741l13.087067 90.1741l22.036926 0l12.411606 -92.28492l0 92.28492l31.071228 0l0 -136.6965l-46.353546 0l-8.10553 63.831104l-4.8970947 -34.786263c-1.5197906 -11.145113 -2.9551544 -20.826727 -4.306076 -29.04484z" fill-rule="evenodd"></path></g></svg>

